<?xml version="1.0" standalone="no"?>
<!DOCTYPE svg PUBLIC "-//W3C//DTD SVG 20010904//EN"
 "http://www.w3.org/TR/2001/REC-SVG-20010904/DTD/svg10.dtd">
<svg version="1.0" xmlns="http://www.w3.org/2000/svg"
 width="212.000000pt" height="194.000000pt" viewBox="0 0 212.000000 194.000000"
 preserveAspectRatio="xMidYMid meet">
<metadata>
Created by potrace 1.16, written by Peter Selinger 2001-2019
</metadata>
<g transform="translate(0.000000,194.000000) scale(0.100000,-0.100000)"
fill="#FFFFFF" stroke="none">
<path d="M830 1786 c-234 -50 -421 -215 -491 -436 -27 -82 -36 -238 -19 -322
48 -246 228 -439 471 -505 100 -27 262 -23 364 10 44 15 102 40 128 57 26 16
51 30 55 30 4 0 100 -93 215 -207 l207 -208 46 0 c60 0 94 35 94 98 0 40 -5
46 -209 251 l-209 211 34 60 c54 96 75 169 81 282 9 164 -21 278 -109 409 -83
124 -218 220 -363 259 -84 22 -217 27 -295 11z m315 -229 c284 -135 348 -504
126 -725 -260 -260 -702 -114 -761 251 -29 185 71 382 238 466 85 43 123 51
229 47 81 -3 100 -7 168 -39z"/>
</g>
</svg>
